<svg width="512" height="512" viewBox="0 0 512 512" fill="none" xmlns="http://www.w3.org/2000/svg">
<rect width="512" height="512" fill="white"/>
<path d="M247.537 267.297C247.537 301.909 247.537 336.619 247.537 371.33C247.537 378.956 247.537 386.583 247.537 394.176C253.18 394.176 258.823 394.176 264.497 394.176C264.497 386.55 264.497 378.924 264.497 371.33C264.497 336.587 264.497 301.909 264.497 267.297C295.516 298.715 326.629 330.069 357.649 361.552C342.077 406.659 301.468 436.709 255.986 436.709C210.536 436.709 169.957 406.659 154.354 361.552C185.436 330.069 216.425 298.715 247.537 267.297Z" fill="#198038"/>
<path d="M244.706 250.336C210.799 282.33 176.829 314.325 142.859 346.352C120.991 343.791 99.0293 341.262 77.1304 338.701C59.6239 281.066 59.6239 219.574 77.1304 161.939C99.0293 159.378 121.023 156.849 142.859 154.352C176.861 186.346 210.799 218.373 244.706 250.336Z" fill="#198038"/>
<path d="M267.294 250.336C301.243 218.373 335.192 186.315 369.173 154.352C391.079 156.881 412.984 159.378 434.89 161.939C452.37 219.574 452.37 281.066 434.89 338.701C412.984 341.23 391.047 343.791 369.173 346.352C335.192 314.357 301.243 282.362 267.294 250.336Z" fill="#198038"/>
<path d="M154.354 139.189C169.957 94.017 210.536 64 255.986 64C301.437 64 342.077 94.0496 357.649 139.189C326.629 170.608 295.516 201.993 264.497 233.412V129.64C268.135 128.858 271.219 125.468 270.725 121.59C274.24 121.329 274.795 117.939 273.069 116.212C270.294 113.442 267.518 110.639 264.712 107.803C263.356 106.402 261.999 105 260.611 103.599C259.81 102.784 259.07 101.937 258.237 101.155C258.114 101.089 258.052 101.024 257.96 100.926C257.805 100.763 257.59 100.666 257.405 100.601C256.942 100.372 256.51 100.275 255.986 100.275C255.524 100.275 255.092 100.372 254.599 100.568C254.414 100.666 254.167 100.796 254.013 100.926C253.92 101.024 253.859 101.089 253.797 101.155C252.995 101.937 252.193 102.784 251.392 103.599C250.004 104.968 248.647 106.402 247.229 107.803C244.485 110.639 241.71 113.409 238.934 116.212C237.177 117.972 237.794 121.394 241.34 121.622C240.846 125.435 243.93 128.792 247.507 129.509V233.412C216.394 201.993 185.405 170.575 154.354 139.189Z" fill="#198038"/>
</svg>
